<?xml version="1.0" encoding="iso-8859-1"?>
<!-- Generator: Adobe Illustrator 19.0.0, SVG Export Plug-In . SVG Version: 6.00 Build 0)  -->
<svg version="1.1" id="Capa_1" xmlns="http://www.w3.org/2000/svg" xmlns:xlink="http://www.w3.org/1999/xlink" x="0px" y="0px"
	 viewBox="0 0 428.438 428.438" style="enable-background:new 0 0 428.438 428.438;" xml:space="preserve">
<g>
	<g>
		<path style="fill:#00EFD1;" d="M419.542,196.456v60.082c0,17.312-14.035,31.347-31.347,31.347H269.599v-33.437H158.84v33.437
			H40.244c-17.312,0-31.347-14.034-31.347-31.347l0,0V123.313c0-17.312,14.035-31.347,31.347-31.347h347.951
			c17.312,0,31.347,14.035,31.347,31.347V196.456z"/>
		<path style="fill:#00ACEA;" d="M419.542,256.538v104.49c0,17.312-14.035,31.347-31.347,31.347H40.244
			c-17.312,0-31.347-14.035-31.347-31.347v-104.49c0,17.312,14.035,31.347,31.347,31.347H158.84v40.229h110.759v-40.229h118.596
			C405.507,287.885,419.542,273.85,419.542,256.538z"/>
		<polygon style="fill:#D4E1F4;" points="269.599,287.885 269.599,328.113 158.84,328.113 158.84,287.885 158.84,254.448 
			269.599,254.448 		"/>
	</g>
	<path style="fill:#083863;" d="M388.195,83.607h-85.159V67.411c0.577-22.21-16.96-40.683-39.17-41.26
		c-0.353-0.009-0.706-0.014-1.058-0.014h-97.176c-22.218-0.007-40.235,17.997-40.242,40.215c0,0.353,0.004,0.706,0.014,1.058v16.196
		H40.244C18.909,82.733,0.906,99.319,0.032,120.653c-0.036,0.886-0.042,1.773-0.017,2.66v237.714
		c-0.577,22.21,16.96,40.683,39.17,41.26c0.353,0.009,0.706,0.014,1.058,0.014h347.951c22.218,0.007,40.235-17.997,40.242-40.215
		c0-0.353-0.004-0.706-0.014-1.058V123.313c0.595-21.344-16.225-39.129-37.569-39.724C389.968,83.565,389.081,83.571,388.195,83.607
		z M146.301,67.411c-0.577-10.66,7.597-19.77,18.257-20.347c0.357-0.019,0.715-0.029,1.073-0.028h97.176
		c10.676-0.016,19.343,8.626,19.359,19.302c0,0.358-0.009,0.716-0.028,1.073v16.196H146.301V67.411z M388.195,381.403H40.244
		c-10.676,0.016-19.343-8.626-19.359-19.302c-0.001-0.358,0.009-0.716,0.028-1.073v-68.441c5.73,3.739,12.497,5.568,19.331,5.224
		h106.057v30.302c0.967,6.298,6.181,11.077,12.539,11.494h110.759c6.358-0.416,11.572-5.196,12.539-11.494v-30.302h106.057
		c6.834,0.344,13.601-1.485,19.331-5.224v68.441c0.577,10.66-7.597,19.77-18.257,20.347
		C388.91,381.394,388.553,381.403,388.195,381.403z M167.199,318.709v-52.245h94.041v52.245H167.199z M388.195,276.913H282.137
		v-22.465c0-5.747-6.792-8.882-12.539-8.882H158.84c-5.747,0-12.539,3.135-12.539,8.882v22.465H40.244
		c-10.676,0.016-19.343-8.626-19.359-19.302c-0.001-0.358,0.009-0.716,0.028-1.073V123.313c-0.617-9.791,6.82-18.228,16.611-18.845
		c0.906-0.057,1.816-0.045,2.72,0.037h347.951c9.77-0.885,18.408,6.318,19.293,16.088c0.082,0.904,0.094,1.814,0.037,2.72v133.224
		c0.577,10.66-7.597,19.77-18.257,20.347C388.91,276.904,388.553,276.914,388.195,276.913z"/>
</g>
<g>
</g>
<g>
</g>
<g>
</g>
<g>
</g>
<g>
</g>
<g>
</g>
<g>
</g>
<g>
</g>
<g>
</g>
<g>
</g>
<g>
</g>
<g>
</g>
<g>
</g>
<g>
</g>
<g>
</g>
</svg>
